<svg xmlns="http://www.w3.org/2000/svg" width="71" height="20" viewBox="0 0 71 20">
    <defs>
        <linearGradient id="prefix__b" x1="-.006%" x2="100.012%" y1="49.94%" y2="49.94%">
            <stop offset="0%" stop-color="#1B44FB"/>
            <stop offset="97.03%" stop-color="#2193FF"/>
            <stop offset="100%" stop-color="#2195FF"/>
        </linearGradient>
        <filter id="prefix__a">
            <feColorMatrix in="SourceGraphic" values="0 0 0 0 1.000000 0 0 0 0 1.000000 0 0 0 0 1.000000 0 0 0 1.000000 0"/>
        </filter>
    </defs>
    <g fill="none" fill-rule="evenodd" filter="url(#prefix__a)" opacity=".5" transform="translate(-142 -4610)">
        <path fill="url(#prefix__b)" fill-rule="nonzero" d="M28.678 0c-5.231 0-9.483 4.226-9.483 9.425 0 5.2 4.252 9.426 9.483 9.426 5.23 0 9.482-4.226 9.482-9.426S33.908 0 28.678 0zm.115 15.402c-3.38 0-6.129-2.732-6.129-6.092 0-3.36 2.75-6.092 6.13-6.092s6.128 2.733 6.128 6.092c0 3.36-2.749 6.092-6.129 6.092zm-13.23-5.977c0 3.344-2.735 6.063-6.1 6.063-3.363 0-6.099-2.719-6.099-6.063V0H0v9.425c0 5.2 4.251 9.426 9.482 9.426 5.23 0 9.482-4.226 9.482-9.426V0h-3.382v9.425h-.019zM60.371 0c-5.236 0-9.492 4.234-9.492 9.444 0 2.154.74 4.16 1.962 5.743.092.11.203.221.314.35 1.11 1.178 3.626 3.277 7.53 3.314h.093c5.032-.221 9.066-4.363 9.066-9.426C69.844 4.234 65.588 0 60.37 0zm.106 15.402c-3.38 0-6.128-2.732-6.128-6.092 0-3.36 2.748-6.092 6.128-6.092s6.129 2.733 6.129 6.092c0 3.36-2.767 6.092-6.129 6.092zm-8.51.053h-7.895c-1.18-.165-2.14-1.101-2.306-2.294V0h-3.375v12.83c0 .955.221 1.836.627 2.643.572 1.175 1.53 2.148 2.73 2.754.811.403 1.715.624 2.656.624H56.43c-2.49-1.047-3.966-2.735-4.464-3.396z" transform="translate(142 4610)"/>
    </g>
</svg>
