<svg xmlns="http://www.w3.org/2000/svg" width="160" height="38" viewBox="0 0 160 38">
    <defs>
        <linearGradient id="prefix__a" x1="-.006%" x2="100.012%" y1="49.94%" y2="49.94%">
            <stop offset="0%" stop-color="#1B44FB"/>
            <stop offset="97.03%" stop-color="#2193FF"/>
            <stop offset="100%" stop-color="#2195FF"/>
        </linearGradient>
    </defs>
    <g fill="none" fill-rule="evenodd">
        <path fill="url(#prefix__a)" fill-rule="nonzero" d="M54.124 0C44.25 0 36.228 8.029 36.228 17.908c0 9.88 8.023 17.908 17.896 17.908 9.872 0 17.896-8.029 17.896-17.908C72.02 8.028 63.996 0 54.124 0zm.218 29.264c-6.38 0-11.567-5.19-11.567-11.574 0-6.384 5.188-11.575 11.567-11.575 6.38 0 11.567 5.191 11.567 11.575 0 6.383-5.188 11.574-11.567 11.574zm-24.97-11.356c0 6.353-5.162 11.52-11.511 11.52-6.35 0-11.512-5.167-11.512-11.52V0H0v17.908c0 9.88 8.023 17.908 17.896 17.908 9.872 0 17.896-8.029 17.896-17.908V0h-6.384v17.908h-.035zM113.94 0c-9.882 0-17.913 8.045-17.913 17.943 0 4.092 1.397 7.905 3.701 10.913.175.21.385.42.594.664 2.095 2.239 6.844 6.226 14.212 6.296h.174c9.498-.42 17.11-8.29 17.11-17.908C131.818 8.045 123.788 0 113.94 0zm.201 29.264c-6.38 0-11.567-5.19-11.567-11.574 0-6.384 5.188-11.575 11.567-11.575 6.38 0 11.567 5.191 11.567 11.575 0 6.383-5.223 11.574-11.567 11.574zm-16.063.1H83.178c-2.228-.314-4.038-2.092-4.351-4.359V0h-6.371v24.377c0 1.814.418 3.488 1.184 5.022 1.079 2.232 2.889 4.08 5.152 5.231 1.531.768 3.237 1.186 5.013 1.186h22.697c-4.7-1.988-7.485-5.196-8.425-6.452z"/>
        <rect width="1" height="24" x="159" y="7" fill="#D8D8D8" rx=".5"/>
    </g>
</svg>
