<?xml version="1.0" encoding="UTF-8"?>
<svg width="125px" height="34px" viewBox="0 0 125 34" version="1.1" xmlns="http://www.w3.org/2000/svg" xmlns:xlink="http://www.w3.org/1999/xlink">
    <title>Logo/ Color</title>
    <defs>
        <linearGradient x1="-0.00627306273%" y1="49.9401361%" x2="100.011808%" y2="49.9401361%" id="linearGradient-1">
            <stop stop-color="#1B44FB" offset="0%"></stop>
            <stop stop-color="#2193FF" offset="97.03%"></stop>
            <stop stop-color="#2195FF" offset="100%"></stop>
        </linearGradient>
    </defs>
    <g id="Uolo-web" stroke="none" stroke-width="1" fill="none" fill-rule="evenodd">
        <g id="Home-page" transform="translate(-374.000000, -19.000000)" fill="url(#linearGradient-1)" fill-rule="nonzero">
            <g id="Logo/-Color" transform="translate(374.000000, 19.000000)">
                <path d="M51.2964169,0 C41.9398124,0 34.3355049,7.60637225 34.3355049,16.9655172 C34.3355049,26.3246622 41.9398124,33.9310345 51.2964169,33.9310345 C60.6530214,33.9310345 68.257329,26.3246622 68.257329,16.9655172 C68.257329,7.60637225 60.6530214,0 51.2964169,0 Z M51.5032573,27.7241379 C45.45725,27.7241379 40.5407166,22.8062696 40.5407166,16.7586207 C40.5407166,10.7109718 45.45725,5.79310345 51.5032573,5.79310345 C57.5492646,5.79310345 62.465798,10.7109718 62.465798,16.7586207 C62.465798,22.8062696 57.5492646,27.7241379 51.5032573,27.7241379 Z M27.8383781,16.9655172 C27.8383781,22.9844727 22.9451715,27.8790079 16.9278498,27.8790079 C10.9105282,27.8790079 6.01732162,22.9844727 6.01732162,16.9655172 L6.01732162,0 L0,0 L0,16.9655172 C0,26.3246622 7.60430755,33.9310345 16.9609121,33.9310345 C26.3175166,33.9310345 33.9218241,26.3246622 33.9218241,16.9655172 L33.9218241,0 L27.8714403,0 L27.8714403,16.9655172 L27.8383781,16.9655172 Z M107.987231,0 C98.6214984,0 91.009772,7.62122845 91.009772,16.998653 C91.009772,20.8755388 92.3335505,24.4873384 94.517785,27.3370151 C94.6832573,27.5358297 94.8818241,27.7346444 95.0803909,27.9665948 C97.0660586,30.0872845 101.566906,33.8647629 108.549837,33.9310345 C108.616026,33.9310345 108.649121,33.9310345 108.715309,33.9310345 L108.715309,33.9310345 C117.717003,33.5334052 124.931596,26.0778556 124.931596,16.9655172 C124.931596,7.62122845 117.31987,0 107.987231,0 Z M108.177524,27.7241379 C102.131517,27.7241379 97.2149837,22.8062696 97.2149837,16.7586207 C97.2149837,10.7109718 102.131517,5.79310345 108.177524,5.79310345 C114.223532,5.79310345 119.140065,10.7109718 119.140065,16.7586207 C119.140065,22.8062696 114.190312,27.7241379 108.177524,27.7241379 Z M92.9538179,27.8188228 L78.8328371,27.8188228 C76.7212885,27.521472 75.0056554,25.8364839 74.7087189,23.6889501 L74.7087189,0 L68.6710098,0 L68.6710098,23.0942484 C68.6710098,24.8122755 69.0669251,26.3981466 69.7927699,27.8518618 C70.8155512,29.9663566 72.5311844,31.7174227 74.6757259,32.8077091 C76.1274155,33.5345667 77.7440699,33.9310345 79.4267101,33.9310345 L100.938111,33.9310345 C96.4840631,32.0478125 93.8446274,29.0082262 92.9538179,27.8188228 Z" id="Shape"></path>
            </g>
        </g>
    </g>
</svg>